<svg id="Layer_1" data-name="Layer 1" xmlns="http://www.w3.org/2000/svg" viewBox="0 0 454.74 176"><defs><style>.cls-1{fill:#6b6b6b;}</style></defs><title>mõt</title><path class="cls-1" d="M17.08,76.38c0-3.75-2-5.5-5.5-5.5h-10v-27H30.83c11.25,0,16.75,5.25,16.75,14.25v3.75c0,2.75-.25,5.5-0.25,5.5h0.5c6-12.5,21.25-26.5,41.25-26.5,19.25,0,31.75,9,37.25,26.25h0.5c6.75-13.75,23.25-26.25,43.5-26.25,26.5,0,41.75,15,41.75,48.5v49.75c0,3.5,2,5.5,5.5,5.5h9.75v26.75h-30c-12,0-17-5-17-17v-59c0-14.5-2.75-25.5-17.5-25.5-15.75,0-27,13.25-30.5,29.25a55.69,55.69,0,0,0-2,16.25v56H98.58v-76c0-13.75-2-25.5-17.25-25.5-16,0-26.75,13.25-30.75,29.5a65.2,65.2,0,0,0-2,16v56H17.08v-95Z"/><path class="cls-1" d="M301.57,40.88c39,0,70,27.75,70,66.75,0,39.25-31,66.75-70,66.75-38.75,0-69.75-27.5-69.75-66.75C231.82,68.63,262.82,40.88,301.57,40.88Zm0,106.5c20.75,0,38-16,38-39.75,0-23.5-17.25-39.75-38-39.75-20.5,0-37.75,16.25-37.75,39.75C263.82,131.38,281.07,147.38,301.57,147.38Z"/><path class="cls-1" d="M390.6,69.13H374.1V43.88h17.25V9.13h31V43.88h29V69.13h-29v51.5c0,21,16.5,24,25.25,24a29.19,29.19,0,0,0,5.75-.5v27.75a58.43,58.43,0,0,1-9.75.75c-17.75,0-53-5.25-53-48V69.13Z"/><path class="cls-1" d="M340.47,38.39C333.46,30,313.05,26,301.57,26c-12.42,0-33.65,5-40.57,14.9L247.68,21.4C260.43,6.78,279.78,1,301.57,1s41.2,5.72,54,20.25Z"/></svg>